<?xml version="1.0" encoding="utf-8"?>
<!-- Generator: Adobe Illustrator 15.1.0, SVG Export Plug-In . SVG Version: 6.00 Build 0)  -->
<!DOCTYPE svg PUBLIC "-//W3C//DTD SVG 1.1//EN" "http://www.w3.org/Graphics/SVG/1.1/DTD/svg11.dtd">
<svg version="1.1" xmlns="http://www.w3.org/2000/svg" xmlns:xlink="http://www.w3.org/1999/xlink" x="0px" y="0px" width="800px"
	 height="600px" viewBox="0 0 800 600" enable-background="new 0 0 800 600" xml:space="preserve">
<g id="Layer_1">
</g>
<g id="Layer_2">
	<g>
		<polygon stroke="#FFFFFF" stroke-miterlimit="10" points="434.5,403.5 413.5,403.5 413.5,382 413.5,377 413.5,357.5 495.5,357.5 
			495.5,342.5 475.5,342.5 475.5,322.5 455.5,322.5 455.5,300.5 434.5,300.5 434.5,279.5 413.5,279.5 413.5,259.5 393.5,259.5 
			393.5,239.5 373.5,239.5 373.5,218.5 353.5,218.5 353.5,198.5 332.5,198.5 332.5,178.5 312.5,178.5 312.5,158.5 297.5,158.5 
			297.5,438.5 312.5,438.5 312.5,418.5 332.5,418.5 332.5,398.5 353.5,398.5 353.5,377.5 378.5,377.5 378.5,398.5 398.5,398.5 
			398.5,438.5 418.5,438.5 418.5,479.5 455.5,479.5 455.5,443.5 434.5,443.5 		"/>
		<path stroke="#FFFFFF" stroke-miterlimit="10" d="M100.5,0.5v599h599V0.5H100.5z M521.5,357v5v20.5h-82v16h20v40h21v46h-21v20h-46
			v-20h-20v-41h-20v-40h-15v20h-21v20h-20v20H298h-5h-20.5v-351h25v20h20v21h20v20h21v20h20v20h20v21h20v20h21v21h20v21h21v21h20v20
			h21V357z"/>
	</g>
</g>
</svg>
