<?xml version="1.0" encoding="utf-8"?>
<!-- Generator: Adobe Illustrator 15.1.0, SVG Export Plug-In . SVG Version: 6.00 Build 0)  -->
<!DOCTYPE svg PUBLIC "-//W3C//DTD SVG 1.1//EN" "http://www.w3.org/Graphics/SVG/1.1/DTD/svg11.dtd">
<svg version="1.1" xmlns="http://www.w3.org/2000/svg" xmlns:xlink="http://www.w3.org/1999/xlink" x="0px" y="0px" width="800px"
	 height="600px" viewBox="0 0 800 600" enable-background="new 0 0 800 600" xml:space="preserve">
<g id="Layer_4">
</g>
<g id="Layer_3">
</g>
<g id="Layer_1">
</g>
<g id="Layer_2">
	<path d="M266,228v140h140V228H266z M378.935,276.116c0.04,0.898,0.061,1.802,0.061,2.709c0,27.673-21.063,59.583-59.582,59.583
		c-11.826,0-22.833-3.468-32.101-9.41c1.638,0.194,3.305,0.294,4.996,0.294c9.812,0,18.841-3.348,26.008-8.965
		c-9.164-0.169-16.897-6.224-19.562-14.543c1.279,0.244,2.59,0.376,3.94,0.376c1.91,0,3.76-0.256,5.517-0.734
		c-9.58-1.925-16.798-10.388-16.798-20.534c0-0.088,0-0.176,0.002-0.263c2.823,1.568,6.052,2.51,9.484,2.619
		c-5.619-3.755-9.316-10.165-9.316-17.43c0-3.838,1.033-7.436,2.835-10.528c10.329,12.67,25.759,21.007,43.163,21.88
		c-0.357-1.533-0.542-3.131-0.542-4.772c0-11.565,9.376-20.94,20.941-20.94c6.023,0,11.466,2.542,15.286,6.613
		c4.77-0.939,9.251-2.682,13.298-5.082c-1.563,4.89-4.884,8.994-9.208,11.585c4.236-0.506,8.272-1.632,12.027-3.297
		C386.577,269.475,383.027,273.163,378.935,276.116z"/>
</g>
</svg>
