<?xml version="1.0" encoding="utf-8"?>
<!-- Generator: Adobe Illustrator 15.1.0, SVG Export Plug-In . SVG Version: 6.00 Build 0)  -->
<!DOCTYPE svg PUBLIC "-//W3C//DTD SVG 1.1//EN" "http://www.w3.org/Graphics/SVG/1.1/DTD/svg11.dtd">
<svg version="1.1" id="Layer_1" xmlns="http://www.w3.org/2000/svg" xmlns:xlink="http://www.w3.org/1999/xlink" x="0px" y="0px"
	 width="800px" height="600px" viewBox="0 0 800 600" enable-background="new 0 0 800 600" xml:space="preserve">
<g>
	<path stroke="#FFFFFF" stroke-miterlimit="10" d="M125.85,19.566c0,9.266,1.682,12.934,2.491,14.934h64.131
		c60.023,0,95.433-1.522,122.155-2.863c42.924-2.427,62.243-8.659,77.518-31.137H125.583c0.082,6.224,0.17,12.538,0.265,18.802
		L125.85,19.566z"/>
	<path stroke="#FFFFFF" stroke-miterlimit="10" d="M421.023,0.5c-7.156,13.723-14.64,23.983-24.128,32.145
		c-19.857,17.082-46.717,22.021-80.937,23.956c-27.11,1.361-62.911,2.899-123.487,2.899h-65.478
		c-12.624,0-26.113-10.579-26.144-39.833c-0.096-6.361-0.185-12.847-0.268-19.167H57.5v507.653
		c48.962-1.147,100.46-1.949,154.076-1.949c118.803,0,210.525,1.377,248.726,2.742c42.035,1.347,52.802,1.347,62.301,1.347
		c0.777,0,1.173-0.069,1.32-0.103c0.22-0.195,1.103-1.087,2.509-3.896l0.171-0.328c18.544-34.454,42.096-133.67,44.864-210.472
		c-5.031-0.553-12.006-1.088-18.092-1.088c-1.936,0-3.476,0.054-4.686,0.129c-24.328,72.398-57.832,118.997-105.09,146.319
		c-50.249,29.052-111.054,33.057-169.278,33.057c-26.627,0-61.068-0.558-91.3-4.901c-36.617-5.262-59.614-15.188-70.294-30.338
		c-13.242-18.284-13.241-42.034-13.241-130.052c0-92.498,4.115-170.188,9.88-188.588c2.228-12.346,10.547-20.025,24.747-22.836
		l0.363-0.066c9.008-1.508,23.096-2.904,64.82-2.904c58.305,0,90.448,0,126.352,2.761c49.606,2.941,78.214,21.088,89.958,57.081
		c6.812,15.223,16.782,44.934,21.468,58.972c0.731,0.849,2.032,1.576,5.415,1.576c1.067,0,2.263,0.029,3.553-0.13l0.764,0.015h0.771
		c6.302,0,12.377-0.758,17.692-1.629c-4.493-41.463-5.761-67.089-6.997-115.317l-0.004-0.348c0-28.574,2.391-64.958,5.144-96.706
		H421.023z"/>
	<path stroke="#FFFFFF" stroke-miterlimit="10" d="M488.501,0.5c-2.776,31.568-5.225,68.062-5.233,96.523
		c1.344,52.375,2.641,76.382,8.104,124.243l1.242,10.883l-10.627,2.66c-7.998,2.002-20.272,4.383-33.662,4.469
		c-2.024,0.224-3.983,0.337-5.834,0.337c-15.448,0-23.459-7.937-27.459-14.595l-0.707-1.177l-0.526-1.578
		c-4.037-12.098-14.76-44.232-21.255-58.526l-0.306-0.675l-0.225-0.707c-5.838-18.354-18.475-37.51-67.944-40.419l-0.227-0.016
		c-34.991-2.696-66.8-2.696-124.545-2.696c-39.684,0-52.916,1.274-60.508,2.531c-4.57,0.919-4.656,1.522-4.881,3.1l-0.234,1.634
		l-0.602,1.407c-2.913,8.426-8.585,71.709-8.585,180.724c0,77.577,0,103.711,8.521,115.432l0.128,0.18
		c3.592,5.13,15.312,14.553,53.442,20.032c28.664,4.119,61.948,4.647,87.744,4.647c131.676,0,206.92-26.087,252.752-168.675
		l1.219-3.791l3.186-2.388c4.41-3.304,10.755-4.652,21.897-4.652c10.14,0,22.226,1.227,27.819,2.187
		c7.062,0.341,11.766,3.514,13.99,9.446c1.308,3.488,1.308,6.766,1.308,13.948l-0.007,0.424
		c-2.763,81.413-27.483,184.367-47.782,222.242c-3.844,7.624-10.733,17.64-26.101,17.64c-9.687,0-20.666,0-63.147-1.361
		c-38.024-1.358-129.385-2.728-247.879-2.728c-53.591,0-105.096,0.806-154.076,1.957V599.5h599V0.5H488.501z"/>
</g>
</svg>
